<?xml version="1.0" encoding="UTF-8"?>
<svg id="Layer_2" data-name="Layer 2" xmlns="http://www.w3.org/2000/svg" viewBox="0 0 329.6 81.29">
  <defs>
    <style>
      .cls-1 {
        fill: #2c404d;
      }

      .cls-2 {
        fill: #fff;
      }

      .cls-3 {
        fill: #57bd84;
      }
    </style>
  </defs>
  <g id="Layer_1-2" data-name="Layer 1">
    <g>
      <g>
        <rect class="cls-1" width="81.29" height="81.29"/>
        <rect class="cls-3" x="2.63" y="2.63" width="76.03" height="76.03"/>
        <path class="cls-1" d="M4.51,9.37v-4.87h28.7v4.87c-1.91.1-2.95.9-3.87,1.62-.89.69-1.59,1.23-3.11,1.23s-2.22-.54-3.11-1.23c-.98-.76-2.1-1.63-4.26-1.63s-3.28.86-4.26,1.63c-.89.69-1.59,1.23-3.11,1.23s-2.22-.54-3.11-1.23c-.92-.72-1.96-1.52-3.87-1.62ZM30.48,12.47c-.98.76-2.1,1.63-4.26,1.63s-3.28-.86-4.26-1.63c-.89-.69-1.59-1.23-3.11-1.23s-2.22.54-3.11,1.23c-.98.76-2.1,1.63-4.26,1.63s-3.28-.86-4.26-1.63c-.81-.63-1.47-1.13-2.72-1.22v5.25c1.91.1,2.95.9,3.87,1.62.89.69,1.59,1.23,3.11,1.23s2.22-.54,3.11-1.23c.98-.76,2.1-1.63,4.26-1.63s3.28.86,4.26,1.63c.89.69,1.59,1.23,3.11,1.23s2.22-.54,3.11-1.23c.92-.72,1.96-1.52,3.87-1.62v-5.25c-1.26.09-1.92.59-2.72,1.22ZM30.48,26.73c-.98.76-2.1,1.63-4.26,1.63s-3.28-.86-4.26-1.63c-.89-.69-1.59-1.23-3.11-1.23s-2.22.54-3.11,1.23c-.98.76-2.1,1.63-4.26,1.63s-3.28-.86-4.26-1.63c-.81-.63-1.47-1.13-2.72-1.22v7.7h28.7v-7.7c-1.26.09-1.92.59-2.72,1.22ZM21.97,19.6c-.89-.69-1.59-1.23-3.11-1.23s-2.22.54-3.11,1.23c-.98.76-2.1,1.63-4.26,1.63s-3.28-.86-4.26-1.63c-.81-.63-1.47-1.13-2.72-1.22v5.25c1.91.1,2.95.9,3.87,1.62.89.69,1.59,1.23,3.11,1.23s2.22-.54,3.11-1.23c.98-.76,2.1-1.63,4.26-1.63s3.28.86,4.26,1.63c.89.69,1.59,1.23,3.11,1.23s2.22-.54,3.11-1.23c.92-.72,1.96-1.52,3.87-1.62v-5.25c-1.26.09-1.92.59-2.72,1.22-.98.76-2.1,1.63-4.26,1.63s-3.28-.86-4.26-1.63Z"/>
        <path class="cls-1" d="M48.09,52.95v-4.87h28.7v4.87c-1.91.1-2.95.9-3.87,1.62-.89.69-1.59,1.23-3.11,1.23s-2.22-.54-3.11-1.23c-.98-.76-2.1-1.63-4.26-1.63s-3.28.86-4.26,1.63c-.89.69-1.59,1.23-3.11,1.23s-2.22-.54-3.11-1.23c-.92-.72-1.96-1.52-3.87-1.62ZM74.06,56.05c-.98.76-2.1,1.63-4.26,1.63s-3.28-.86-4.26-1.63c-.89-.69-1.59-1.23-3.11-1.23s-2.22.54-3.11,1.23c-.98.76-2.1,1.63-4.26,1.63s-3.28-.86-4.26-1.63c-.81-.63-1.47-1.13-2.72-1.22v5.25c1.91.1,2.95.9,3.87,1.62.89.69,1.59,1.23,3.11,1.23s2.22-.54,3.11-1.23c.98-.76,2.1-1.63,4.26-1.63s3.28.86,4.26,1.63c.89.69,1.59,1.23,3.11,1.23s2.22-.54,3.11-1.23c.92-.72,1.96-1.52,3.87-1.62v-5.25c-1.26.09-1.92.59-2.72,1.22ZM74.06,70.31c-.98.76-2.1,1.63-4.26,1.63s-3.28-.86-4.26-1.63c-.89-.69-1.59-1.23-3.11-1.23s-2.22.54-3.11,1.23c-.98.76-2.1,1.63-4.26,1.63s-3.28-.86-4.26-1.63c-.81-.63-1.47-1.13-2.72-1.22v7.7h28.7v-7.7c-1.26.09-1.92.59-2.72,1.22ZM65.55,63.18c-.89-.69-1.59-1.23-3.11-1.23s-2.22.54-3.11,1.23c-.98.76-2.1,1.63-4.26,1.63s-3.28-.86-4.26-1.63c-.81-.63-1.47-1.13-2.72-1.22v5.25c1.91.1,2.95.9,3.87,1.62.89.69,1.59,1.23,3.11,1.23s2.22-.54,3.11-1.23c.98-.76,2.1-1.63,4.26-1.63s3.28.86,4.26,1.63c.89.69,1.59,1.23,3.11,1.23s2.22-.54,3.11-1.23c.92-.72,1.96-1.52,3.87-1.62v-5.25c-1.26.09-1.92.59-2.72,1.22-.98.76-2.1,1.63-4.26,1.63s-3.28-.86-4.26-1.63Z"/>
        <path class="cls-1" d="M60.74,4.51h3.39c.18,1.61.85,3.04,1.84,4.11h-1.9v.94c0,3.05,1.29,5.76,3.29,7.47h-3.29v.94c0,4.01,1.81,7.54,4.55,9.59h-4.55v5.67h-3.28v-5.67h-4.55c2.74-2.05,4.55-5.58,4.55-9.59v-.94h-3.29c1.99-1.71,3.29-4.42,3.29-7.47v-.94h-1.9c.99-1.06,1.66-2.5,1.84-4.11ZM66.02,4.51c.35,2.33,2.06,4.11,4.11,4.11v1.87h-4.13c.39,3.68,3.07,6.53,6.29,6.53v1.87h-6.3c.4,4.85,3.9,8.65,8.14,8.65v1.87h-8.18v3.8h10.84V4.51h-10.77ZM58.92,29.4h-8.18v-1.87c4.24,0,7.74-3.8,8.14-8.65h-6.3v-1.87c3.23,0,5.9-2.85,6.29-6.53h-4.13v-1.87c2.06,0,3.77-1.78,4.11-4.11h-10.77v28.7h10.84v-3.8Z"/>
        <path class="cls-1" d="M17.16,48.09h3.39c.18,1.61.85,3.04,1.84,4.11h-1.9v.94c0,3.05,1.29,5.76,3.29,7.47h-3.29v.94c0,4.01,1.81,7.54,4.55,9.59h-4.55v5.67h-3.28v-5.67h-4.55c2.74-2.05,4.55-5.58,4.55-9.59v-.94h-3.29c1.99-1.71,3.29-4.42,3.29-7.47v-.94h-1.9c.99-1.06,1.66-2.5,1.84-4.11ZM22.44,48.09c.35,2.33,2.06,4.11,4.11,4.11v1.87h-4.13c.39,3.68,3.07,6.53,6.29,6.53v1.87h-6.3c.4,4.85,3.9,8.65,8.14,8.65v1.87h-8.18v3.8h10.84v-28.7h-10.77ZM15.34,72.98H7.16v-1.87c4.24,0,7.74-3.8,8.14-8.65h-6.3v-1.87c3.23,0,5.9-2.85,6.29-6.53h-4.13v-1.87c2.06,0,3.77-1.78,4.11-4.11H4.51v28.7h10.84v-3.8Z"/>
        <g>
          <rect class="cls-2" x="18.86" y="18.86" width="43.58" height="43.58"/>
          <rect class="cls-1" x="22.02" y="22.02" width="37.26" height="37.26"/>
          <g>
            <path class="cls-3" d="M52.01,34.06l-2.96-2.12,4.03,14.54s-3.31-1.17-6.8-1.17-5.63,1.7-5.63,1.7c0,0-2.14-1.7-5.63-1.7s-6.8,1.17-6.8,1.17l4.03-14.54-2.96,2.12-3.94,14.76h13.47s.58.53,1.84.53,1.84-.53,1.84-.53h13.47l-3.94-14.76Z"/>
            <polygon class="cls-2" points="48.25 35.47 42.19 35.47 42.19 29.63 39.1 29.63 39.1 35.47 33.04 35.47 33.04 38.55 39.1 38.55 39.1 51.66 42.19 51.66 42.19 38.55 48.25 38.55 48.25 35.47"/>
          </g>
        </g>
      </g>
      <g>
        <path class="cls-3" d="M103.08,26.38c.54.82,1.2,1.53,1.99,2.14.79.61,1.85,1.35,3.19,2.23,1.46.93,2.62,1.75,3.49,2.44.87.7,1.62,1.55,2.23,2.55.61,1,.92,2.16.92,3.47,0,1.51-.41,2.86-1.22,4.04-.82,1.18-1.94,2.1-3.38,2.75s-3.05.98-4.82.98c-1.31,0-2.68-.18-4.1-.55-1.43-.36-2.39-.76-2.88-1.2-.15-.12-.26-.23-.33-.33-.07-.1-.11-.27-.11-.5l-.13-6.94v-.04c0-.12.07-.18.22-.2.14-.01.23.04.26.15.87,1.78,1.64,3.22,2.29,4.32.65,1.11,1.48,2.08,2.49,2.93,1,.84,2.15,1.27,3.43,1.27,1.16,0,2.12-.31,2.88-.94.76-.63,1.13-1.7,1.13-3.21,0-1.28-.28-2.4-.85-3.36-.57-.96-1.26-1.77-2.07-2.44-.82-.67-1.94-1.47-3.36-2.4-1.4-.9-2.48-1.67-3.25-2.31-.77-.64-1.43-1.41-1.99-2.31-.55-.9-.83-1.96-.83-3.19,0-1.54.44-2.84,1.33-3.91.89-1.06,2.03-1.85,3.43-2.36,1.4-.51,2.87-.76,4.41-.76,1.02,0,2.05.09,3.1.28,1.05.19,1.89.41,2.53.68.26.12.44.24.52.37s.13.3.13.5v6.42c0,.09-.07.15-.22.2-.15.04-.23.02-.26-.07l-.35-.83c-.73-1.83-1.58-3.39-2.55-4.67-.98-1.28-2.34-1.92-4.08-1.92-1.16,0-2.12.34-2.86,1-.74.67-1.11,1.64-1.11,2.92,0,1.05.27,1.98.81,2.79ZM124.8,46.55v3.84c0,.87.09,1.51.28,1.92.19.41.55.69,1.09.85.54.16,1.38.24,2.51.24.09,0,.13.09.13.26s-.04.26-.13.26c-1.08,0-1.92-.01-2.53-.04l-3.45-.04-2.58.04c-.44.03-1.05.04-1.83.04-.09,0-.13-.09-.13-.26s.04-.26.13-.26c.7,0,1.22-.08,1.55-.24.33-.16.57-.44.7-.85.13-.41.2-1.05.2-1.92v-15.68c0-.93-.1-1.6-.31-2.01-.2-.41-.57-.61-1.09-.61-.47,0-1.13.2-2.01.61h-.09c-.09,0-.17-.07-.24-.22-.07-.15-.08-.23-.02-.26l6.2-3.01c.06-.03.13-.04.22-.04.29,0,.56.25.81.74.25.5.41,1.16.5,2.01,2.12-1.92,4.31-2.88,6.55-2.88,1.22,0,2.36.32,3.43.96,1.06.64,1.91,1.57,2.55,2.79.64,1.22.96,2.65.96,4.28,0,2.33-.48,4.24-1.44,5.74-.96,1.5-2.18,2.58-3.65,3.23-1.47.65-2.99.98-4.56.98-1.43,0-2.68-.16-3.75-.48ZM124.8,32.88v10.87c.64.73,1.31,1.27,2.01,1.64.7.36,1.56.55,2.58.55,2.94,0,4.41-2.5,4.41-7.51,0-2.21-.52-3.92-1.55-5.13-1.03-1.21-2.32-1.81-3.86-1.81-1.31,0-2.5.47-3.58,1.4ZM156.5,43.58c.06,0,.12.06.2.17.07.12.08.2.02.26-1.08,1.05-2.17,1.8-3.27,2.27-1.11.47-2.31.7-3.62.7-1.83,0-3.42-.39-4.76-1.16s-2.36-1.8-3.06-3.1c-.7-1.29-1.05-2.7-1.05-4.21,0-1.69.42-3.25,1.27-4.67.84-1.43,2.02-2.55,3.51-3.38,1.5-.83,3.19-1.24,5.09-1.24s3.2.41,4.19,1.22c.99.82,1.48,2.08,1.48,3.8,0,.9-.16,1.35-.48,1.35l-10.61.04c-.03.2-.04.54-.04,1,0,2.56.59,4.57,1.77,6.02,1.18,1.46,2.87,2.18,5.09,2.18.79,0,1.45-.09,2.01-.26.55-.17,1.28-.49,2.18-.96l.09-.04ZM146.76,31.33c-.64.83-1.06,1.97-1.27,3.43l6.33-.09c-.03-1.48-.25-2.62-.65-3.41s-1.08-1.18-2.01-1.18-1.76.41-2.4,1.24ZM180.16,46.2c0,.17-.04.26-.13.26-.76,0-1.35-.01-1.79-.04l-2.62-.04-2.53.04c-.47.03-1.08.04-1.83.04-.09,0-.13-.09-.13-.26s.04-.26.13-.26c.9,0,1.51-.21,1.83-.63.32-.42.48-1.21.48-2.38v-6.29c0-1.57-.28-2.74-.85-3.49-.57-.76-1.46-1.13-2.69-1.13-.7,0-1.42.15-2.16.44-.74.29-1.39.68-1.94,1.18v9.3c0,1.16.17,1.96.5,2.38.33.42.95.63,1.86.63.09,0,.13.09.13.26s-.04.26-.13.26c-.76,0-1.35-.01-1.79-.04l-2.62-.04-2.58.04c-.44.03-1.03.04-1.79.04-.09,0-.13-.09-.13-.26s.04-.26.13-.26c.9,0,1.51-.21,1.83-.63.32-.42.48-1.21.48-2.38v-8.21c0-.9-.11-1.56-.33-1.99-.22-.42-.56-.63-1.03-.63-.5,0-1.19.2-2.1.61h-.09c-.09,0-.15-.07-.2-.22-.04-.15-.04-.23.02-.26l6.07-2.97c.17-.06.28-.09.31-.09.32,0,.63.31.92.94.29.63.46,1.48.52,2.55,2.01-2.39,4.22-3.58,6.64-3.58,1.57,0,2.82.5,3.73,1.51.92,1,1.38,2.32,1.38,3.95v8.38c0,1.16.17,1.96.5,2.38.33.42.95.63,1.86.63.09,0,.13.09.13.26ZM186.12,45.74c-1.33-.83-2.31-1.91-2.97-3.23-.65-1.32-.98-2.71-.98-4.17,0-1.83.51-3.44,1.53-4.82,1.02-1.38,2.32-2.44,3.91-3.19,1.59-.74,3.21-1.11,4.87-1.11,1.4,0,2.66.29,3.78.87,1.12.58,1.68,1.38,1.68,2.4,0,.55-.21,1.03-.63,1.42s-1.01.59-1.77.59c-.7,0-1.25-.18-1.66-.55-.41-.36-.74-.92-1-1.68-.26-.81-.52-1.38-.76-1.68-.25-.31-.69-.46-1.33-.46-1.25,0-2.25.62-2.99,1.86-.74,1.24-1.11,2.87-1.11,4.91,0,2.42.54,4.34,1.62,5.78,1.08,1.44,2.79,2.16,5.15,2.16.79,0,1.46-.09,2.03-.26.57-.17,1.29-.47,2.16-.87h.04c.09,0,.17.04.24.13.07.09.08.16.02.22-1.08.99-2.15,1.72-3.23,2.2-1.08.48-2.31.72-3.71.72-1.92,0-3.54-.41-4.87-1.24ZM216,43.58c.06,0,.12.06.2.17.07.12.08.2.02.26-1.08,1.05-2.17,1.8-3.27,2.27-1.11.47-2.31.7-3.62.7-1.83,0-3.42-.39-4.76-1.16-1.34-.77-2.36-1.8-3.06-3.1-.7-1.29-1.05-2.7-1.05-4.21,0-1.69.42-3.25,1.27-4.67.84-1.43,2.01-2.55,3.51-3.38,1.5-.83,3.19-1.24,5.09-1.24s3.2.41,4.19,1.22c.99.82,1.48,2.08,1.48,3.8,0,.9-.16,1.35-.48,1.35l-10.61.04c-.03.2-.04.54-.04,1,0,2.56.59,4.57,1.77,6.02,1.18,1.46,2.87,2.18,5.09,2.18.79,0,1.45-.09,2.01-.26.55-.17,1.28-.49,2.18-.96l.09-.04ZM206.27,31.33c-.64.83-1.06,1.97-1.27,3.43l6.33-.09c-.03-1.48-.25-2.62-.65-3.41s-1.08-1.18-2.01-1.18-1.76.41-2.4,1.24ZM232.31,29.89c.63.48.94,1.06.94,1.72,0,.61-.19,1.11-.57,1.51-.38.39-.87.59-1.48.59-.44,0-.79-.09-1.07-.26-.28-.17-.56-.44-.85-.79-.26-.29-.49-.5-.68-.63s-.41-.2-.68-.2c-.29,0-.6.11-.94.33-.34.22-.85.68-1.55,1.38v9.39c0,1.16.28,1.96.83,2.38.55.42,1.57.63,3.06.63.12,0,.17.09.17.26s-.06.26-.17.26c-1.02,0-1.82-.01-2.4-.04l-3.54-.04-2.58.04c-.44.03-1.03.04-1.79.04-.09,0-.13-.09-.13-.26s.04-.26.13-.26c.9,0,1.51-.21,1.83-.63.32-.42.48-1.21.48-2.38v-8.21c0-.9-.11-1.56-.33-1.99-.22-.42-.56-.63-1.03-.63-.5,0-1.19.2-2.1.61h-.09c-.09,0-.15-.07-.2-.22-.04-.15-.04-.23.02-.26l6.07-2.97c.17-.06.28-.09.31-.09.32,0,.62.3.89.89.28.6.44,1.4.5,2.42,1.19-1.22,2.18-2.08,2.95-2.58.77-.49,1.45-.74,2.03-.74.67,0,1.32.24,1.94.72ZM280.53,46.2c0,.17-.03.26-.09.26-.99,0-1.78-.01-2.36-.04l-3.23-.04-3.27.04c-.55.03-1.31.04-2.27.04-.09,0-.13-.09-.13-.26s.04-.26.13-.26c1.22,0,2.05-.15,2.49-.44.44-.29.65-.9.65-1.83l-.04-.74-.92-17.86-8.99,21.09c-.06.12-.17.17-.35.17s-.29-.06-.35-.17l-11.05-21-.35,15.76c-.03,1.57.28,2.8.94,3.69.65.89,1.58,1.33,2.77,1.33.09,0,.13.09.13.26s-.04.26-.13.26c-.79,0-1.4-.01-1.83-.04l-2.4-.04-2.75.04c-.47.03-1.09.04-1.88.04-.09,0-.13-.09-.13-.26s.04-.26.13-.26c1.19,0,2.14-.45,2.84-1.35.7-.9,1.06-2.12,1.09-3.67l.39-18.07-.04-.04c-.58-1.08-1.19-1.86-1.81-2.36-.63-.49-1.35-.74-2.16-.74-.09,0-.13-.09-.13-.26s.04-.26.13-.26l2.05.04c.41.03.93.04,1.57.04l2.31-.04c.26-.03.6-.04,1-.04.38,0,.67.13.87.39.2.26.58.89,1.13,1.88l9.52,17.86,8.3-19.04c.17-.41.36-.69.55-.85.19-.16.44-.24.76-.24.26,0,.56.01.9.04.33.03.72.04,1.16.04l2.58-.04c.41-.03.99-.04,1.75-.04.09,0,.13.09.13.26s-.04.26-.13.26c-1.37,0-2.36.28-2.97.83-.61.55-.89,1.41-.83,2.58l1.05,19.82c.06.9.17,1.56.33,1.96.16.41.45.68.87.83.42.15,1.08.22,1.99.22.06,0,.09.09.09.26ZM283.06,46.2c0-.17.04-.26.13-.26.9,0,1.51-.21,1.83-.63.32-.42.48-1.21.48-2.38v-7.82c0-.99-.1-1.7-.31-2.14-.2-.44-.54-.65-1-.65-.38,0-.92.16-1.62.48h-.04c-.12,0-.2-.08-.26-.24-.06-.16-.04-.25.04-.28l6.59-3.06.13-.04c.14,0,.29.07.44.22.14.15.22.28.22.39v.96c-.06,1.16-.09,2.59-.09,4.28v7.9c0,1.16.17,1.96.5,2.38.33.42.95.63,1.86.63.09,0,.13.09.13.26s-.04.26-.13.26c-.76,0-1.35-.01-1.79-.04l-2.62-.04-2.58.04c-.44.03-1.03.04-1.79.04-.09,0-.13-.09-.13-.26ZM285.42,24.15c-.47-.47-.7-1.12-.7-1.96,0-.76.24-1.36.72-1.81.48-.45,1.13-.68,1.94-.68s1.44.22,1.88.65.65,1.05.65,1.83c0,.84-.22,1.5-.65,1.96s-1.06.7-1.88.7-1.5-.23-1.96-.7ZM294.42,46.2c0-.17.03-.26.09-.26.9,0,1.52-.21,1.86-.63.33-.42.5-1.21.5-2.38l.04-22.18c0-1.02-.09-1.75-.28-2.18s-.52-.65-.98-.65c-.38,0-.93.16-1.66.48h-.04c-.09,0-.17-.08-.24-.24-.07-.16-.08-.25-.02-.28l6.42-3.01.17-.04c.15,0,.31.07.48.2.17.13.26.25.26.37v27.55c0,1.16.16,1.96.48,2.38.32.42.93.63,1.83.63.12,0,.17.09.17.26s-.06.26-.17.26c-.73,0-1.31-.01-1.75-.04l-2.66-.04-2.62.04c-.44.03-1.03.04-1.79.04-.06,0-.09-.09-.09-.26ZM306.12,46.2c0-.17.03-.26.09-.26.9,0,1.52-.21,1.86-.63.33-.42.5-1.21.5-2.38l.04-22.18c0-1.02-.09-1.75-.28-2.18s-.52-.65-.98-.65c-.38,0-.93.16-1.66.48h-.04c-.09,0-.17-.08-.24-.24-.07-.16-.08-.25-.02-.28l6.42-3.01.17-.04c.15,0,.31.07.48.2.17.13.26.25.26.37v27.55c0,1.16.16,1.96.48,2.38.32.42.93.63,1.83.63.12,0,.17.09.17.26s-.06.26-.17.26c-.73,0-1.31-.01-1.75-.04l-2.66-.04-2.62.04c-.44.03-1.03.04-1.79.04-.06,0-.09-.09-.09-.26ZM322.42,33.89c.6.61,1.46,1.25,2.6,1.92,1.11.64,1.93,1.14,2.47,1.51.54.36,1.03.87,1.46,1.53.44.65.65,1.45.65,2.38,0,.99-.25,1.92-.74,2.79-.5.87-1.24,1.58-2.23,2.12-.99.54-2.17.81-3.54.81-1.6,0-3.11-.39-4.54-1.18-.17-.17-.26-.35-.26-.52l-.09-4.32c0-.09.08-.14.24-.15.16-.01.25,0,.28.07.46,1.46,1.24,2.69,2.31,3.71,1.08,1.02,2.17,1.53,3.27,1.53.61,0,1.1-.19,1.46-.57.36-.38.55-.93.55-1.66,0-1.08-.31-1.93-.92-2.55-.61-.63-1.51-1.27-2.71-1.94-1.02-.55-1.79-1-2.31-1.35-.52-.35-.99-.84-1.4-1.48-.41-.64-.61-1.43-.61-2.36,0-1.72.61-2.98,1.83-3.78,1.22-.8,2.72-1.2,4.5-1.2.67,0,1.27.04,1.81.13.54.09,1.14.26,1.81.52.26.09.39.25.39.48,0,.73-.02,1.3-.04,1.7l-.04,2.18c0,.09-.09.13-.26.13s-.26-.04-.26-.13c0-.55-.23-1.16-.7-1.81-.47-.65-1.07-1.22-1.81-1.68-.74-.47-1.51-.7-2.29-.7-1.19,0-1.79.57-1.79,1.7,0,.84.3,1.57.89,2.18Z"/>
        <g>
          <path class="cls-1" d="M159.58,61.51h-1.82v4.89h1.82c1.54,0,2.6-1.07,2.6-2.45h0c0-1.39-1.06-2.45-2.6-2.45ZM161.27,63.97c0,.96-.67,1.65-1.7,1.65h-.96v-3.33h.96c1.03,0,1.7.71,1.7,1.66h0Z"/>
          <polygon class="cls-1" points="186.1 61.51 185.11 61.51 183.89 63.28 182.67 61.51 181.66 61.51 183.36 63.91 181.59 66.4 182.58 66.4 183.86 64.53 185.15 66.4 186.17 66.4 184.39 63.9 186.1 61.51"/>
          <path class="cls-1" d="M172.14,61.43c-1.5,0-2.56,1.15-2.56,2.53h0c0,1.39,1.05,2.53,2.55,2.53s2.56-1.15,2.56-2.53h0c0-1.39-1.05-2.53-2.55-2.53ZM173.79,63.97c0,.95-.68,1.72-1.65,1.72s-1.66-.78-1.66-1.73h0c0-.96.68-1.74,1.65-1.74s1.66.79,1.66,1.74h0Z"/>
          <path class="cls-1" d="M147.59,61.43c-1.5,0-2.56,1.15-2.56,2.53h0c0,1.39,1.05,2.53,2.55,2.53s2.56-1.15,2.56-2.53h0c0-1.39-1.05-2.53-2.55-2.53ZM149.23,63.97c0,.95-.68,1.72-1.65,1.72s-1.66-.78-1.66-1.73h0c0-.96.68-1.74,1.65-1.74s1.66.79,1.66,1.74h0Z"/>
          <polygon class="cls-1" points="136.54 63.54 134.21 63.54 134.21 61.51 133.35 61.51 133.35 66.4 134.21 66.4 134.21 64.34 136.54 64.34 136.54 66.4 137.4 66.4 137.4 61.51 136.54 61.51 136.54 63.54"/>
          <path class="cls-1" d="M100.47,61.43c-1.5,0-2.56,1.15-2.56,2.53h0c0,1.39,1.05,2.53,2.55,2.53s2.56-1.15,2.56-2.53h0c0-1.39-1.05-2.53-2.55-2.53ZM102.12,63.97c0,.95-.68,1.72-1.65,1.72s-1.66-.78-1.66-1.73h0c0-.96.68-1.74,1.65-1.74s1.66.79,1.66,1.74h0Z"/>
          <path class="cls-1" d="M114.64,63.07h0c0-.44-.15-.8-.41-1.07-.31-.31-.8-.49-1.41-.49h-2.18v4.89h.86v-1.71h1.08l1.2,1.71h1.02l-1.32-1.85c.68-.2,1.16-.68,1.16-1.48ZM111.5,63.93v-1.64h1.25c.64,0,1.01.29,1.01.81h0c0,.51-.39.83-1.01.83h-1.26Z"/>
          <path class="cls-1" d="M204.23,61.51h-1.93v4.89h.86v-1.57h.97c1.08,0,1.96-.57,1.96-1.67h0c0-1-.71-1.65-1.86-1.65ZM205.21,63.18c0,.51-.41.87-1.05.87h-1v-1.76h1c.64,0,1.05.3,1.05.87h0Z"/>
          <polygon class="cls-1" points="121.9 62.31 123.45 62.31 123.45 66.4 124.32 66.4 124.32 62.31 125.87 62.31 125.87 61.51 121.9 61.51 121.9 62.31"/>
          <rect class="cls-1" x="304.5" y="61.51" width=".86" height="4.89"/>
          <polygon class="cls-1" points="282.43 64.32 284.88 64.32 284.88 63.55 282.43 63.55 282.43 62.28 285.2 62.28 285.2 61.51 281.57 61.51 281.57 66.4 285.23 66.4 285.23 65.63 282.43 65.63 282.43 64.32"/>
          <path class="cls-1" d="M296.83,63.07h0c0-.44-.15-.8-.41-1.07-.31-.31-.8-.49-1.41-.49h-2.18v4.89h.86v-1.71h1.08l1.2,1.71h1.02l-1.32-1.85c.68-.2,1.16-.68,1.16-1.48ZM293.69,63.93v-1.64h1.25c.64,0,1.01.29,1.01.81h0c0,.51-.39.83-1.01.83h-1.26Z"/>
          <polygon class="cls-1" points="328.76 61.51 328.76 64.89 326.14 61.51 325.34 61.51 325.34 66.4 326.19 66.4 326.19 62.92 328.88 66.4 329.6 66.4 329.6 61.51 328.76 61.51"/>
          <polygon class="cls-1" points="270.12 62.31 271.67 62.31 271.67 66.4 272.54 66.4 272.54 62.31 274.09 62.31 274.09 61.51 270.12 61.51 270.12 62.31"/>
          <path class="cls-1" d="M314.98,61.47l-2.15,4.93h.88l.5-1.18h2.31l.5,1.18h.91l-2.15-4.93h-.8ZM314.52,64.46l.84-1.96.85,1.96h-1.68Z"/>
          <path class="cls-1" d="M238.32,63.56c-.94-.22-1.17-.39-1.17-.77h0c0-.34.29-.59.8-.59.45,0,.89.17,1.33.5l.46-.65c-.5-.4-1.06-.61-1.78-.61-.97,0-1.67.58-1.67,1.42h0c0,.92.59,1.22,1.63,1.47.91.21,1.1.4,1.1.75h0c0,.38-.34.63-.87.63-.6,0-1.08-.23-1.54-.64l-.52.61c.59.52,1.29.78,2.04.78,1.03,0,1.75-.55,1.75-1.46h0c0-.82-.53-1.19-1.57-1.45Z"/>
          <polygon class="cls-1" points="260.77 63.67 259.41 61.51 258.38 61.51 260.33 64.47 260.33 66.4 261.19 66.4 261.19 64.45 263.14 61.51 262.15 61.51 260.77 63.67"/>
          <polygon class="cls-1" points="226.03 64.32 228.48 64.32 228.48 63.55 226.03 63.55 226.03 62.28 228.8 62.28 228.8 61.51 225.17 61.51 225.17 66.4 228.83 66.4 228.83 65.63 226.03 65.63 226.03 64.32"/>
          <path class="cls-1" d="M250.58,63.86c.36-.19.7-.5.7-1.09h0c0-.34-.11-.61-.33-.82-.28-.28-.72-.43-1.28-.43h-2.19v4.89h2.26c1.09,0,1.81-.47,1.81-1.34h0c0-.68-.4-1.01-.97-1.2ZM248.32,62.27h1.24c.55,0,.86.24.86.62h0c0,.46-.37.68-.92.68h-1.17v-1.3ZM250.69,64.97c0,.44-.36.67-.94.67h-1.43v-1.34h1.36c.68,0,1.01.24,1.01.66h0Z"/>
          <path class="cls-1" d="M216.38,64.55c.68-.2,1.16-.68,1.16-1.48h0c0-.44-.15-.8-.41-1.07-.31-.31-.8-.49-1.41-.49h-2.18v4.89h.86v-1.71h1.08l1.2,1.71h1.02l-1.32-1.85ZM214.4,63.93v-1.64h1.25c.64,0,1.01.29,1.01.81h0c0,.51-.39.83-1.01.83h-1.26Z"/>
        </g>
      </g>
    </g>
  </g>
</svg>